<svg width="187" height="40" viewBox="0 0 187 40" fill="none" xmlns="http://www.w3.org/2000/svg">
<g clip-path="url(#clip0_252_93)">
<path d="M21.5686 -6.22508e-06C23.2247 -0.0249366 24.8701 0.269923 26.4145 0.868363C27.8055 1.40559 29.0752 2.21504 30.1493 3.2493C31.166 4.24227 31.967 5.43423 32.5023 6.7507C33.0512 8.11226 33.3272 9.56842 33.3146 11.0364C33.3697 13.1675 32.8573 15.2749 31.83 17.1429C30.7117 18.9666 29.0009 20.351 26.9841 21.0644V21.1765C27.9721 21.4263 28.8912 21.8955 29.6731 22.549C30.3818 23.164 30.9706 23.9048 31.4098 24.7339C31.8557 25.6172 32.1703 26.5609 32.3435 27.535C32.5476 28.5335 32.6879 29.5439 32.7637 30.5602C32.8011 31.1827 32.8384 31.9297 32.8758 32.8011C32.9131 33.6726 32.9785 34.5503 33.0718 35.4342C33.1587 36.2937 33.3085 37.1456 33.52 37.9832C33.6969 38.7185 34.0139 39.4128 34.4537 40.028H25.6582C25.1215 38.5707 24.8068 37.041 24.7245 35.4902C24.6125 33.7348 24.4444 32.0542 24.2203 30.4482C24.1038 28.7569 23.4495 27.1472 22.3529 25.8543C21.3818 24.8833 19.7945 24.3978 17.591 24.3978H8.79546V40.028H0.00927734V-6.22508e-06H21.5686ZM18.4313 18.1326C20.0575 18.2554 21.6723 17.7769 22.9691 16.7881C23.9775 15.8917 24.4817 14.4351 24.4817 12.4183C24.4817 10.4015 23.9775 8.99161 22.9691 8.18862C21.6645 7.21747 20.0531 6.74997 18.4313 6.87209H8.79546V18.1326H18.4313Z" fill="white"/>
<path d="M69.5798 0V7.39497H48.4593V15.9664H67.8431V22.8011H48.4593V32.6051H70.0373V40H39.6638V0H69.5798Z" fill="white"/>
<path d="M96.4706 0L111.41 40H102.278L99.2531 31.0925H84.3137L81.1765 40H72.325L87.451 0H96.4706ZM96.9748 24.5378L91.9328 9.85997H91.8208L86.6107 24.5378H96.9748Z" fill="#46ACED"/>
<path d="M131.821 -1.87084e-05C134.275 -0.0213023 136.713 0.396096 139.02 1.23248C141.196 2.03384 143.168 3.30963 144.79 4.96731C146.486 6.72519 147.785 8.82668 148.6 11.1298C149.568 13.9201 150.033 16.8603 149.972 19.8132C149.998 22.5428 149.62 25.2613 148.852 27.8805C148.172 30.2194 147.018 32.3934 145.462 34.267C143.918 36.0841 141.984 37.5298 139.804 38.4967C137.284 39.5757 134.561 40.1011 131.821 40.0373H114.566V-1.87084e-05H131.821ZM131.205 32.605C132.475 32.6111 133.738 32.4028 134.939 31.9888C136.15 31.568 137.244 30.8674 138.133 29.944C139.138 28.8735 139.902 27.6 140.374 26.2091C140.977 24.4047 141.261 22.5089 141.214 20.6069C141.234 18.7694 141.036 16.9359 140.626 15.1447C140.286 13.6318 139.627 12.2089 138.693 10.971C137.762 9.78679 136.535 8.86896 135.135 8.30999C133.394 7.64311 131.538 7.32584 129.673 7.37629H123.399V32.5864L131.205 32.605Z" fill="#46ACED"/>
<path d="M148.571 0H158.431L167.768 15.7983L177.105 0H186.909L172.045 24.6685V40.0187H163.249V24.4258L148.571 0Z" fill="white"/>
</g>
<defs>
<clipPath id="clip0_252_93">
<rect width="186.891" height="40" fill="white"/>
</clipPath>
</defs>
</svg>
